<svg width="22" height="19" viewBox="0 0 22 19" fill="none" xmlns="http://www.w3.org/2000/svg">
<path d="M7.71173 16.3766L8.17605 15.7876L7.71173 16.3766ZM10.75 2.96633L10.2096 3.48643C10.351 3.63333 10.5461 3.71633 10.75 3.71633C10.9539 3.71633 11.149 3.63333 11.2904 3.48643L10.75 2.96633ZM13.7883 16.3766L14.2526 16.9656L13.7883 16.3766ZM7.71173 16.3766L8.17605 15.7876C6.66039 14.5928 5.00307 13.426 3.68829 11.9455C2.39922 10.4939 1.5 8.8002 1.5 6.6028H0.75H0C0 9.26833 1.1105 11.3017 2.56672 12.9415C3.99723 14.5523 5.82077 15.8409 7.24742 16.9656L7.71173 16.3766ZM0.75 6.6028H1.5C1.5 4.45193 2.71537 2.64822 4.37436 1.88989C5.98607 1.15317 8.15166 1.34827 10.2096 3.48643L10.75 2.96633L11.2904 2.44623C8.8485 -0.0907805 6.01409 -0.508915 3.75076 0.525658C1.53471 1.53862 0 3.89073 0 6.6028H0.75ZM7.71173 16.3766L7.24742 16.9656C7.75965 17.3694 8.30954 17.8 8.86682 18.1256C9.42386 18.4511 10.0596 18.7157 10.75 18.7157V17.9657V17.2157C10.4404 17.2157 10.0761 17.095 9.62361 16.8305C9.17132 16.5662 8.70208 16.2023 8.17605 15.7876L7.71173 16.3766ZM13.7883 16.3766L14.2526 16.9656C15.6792 15.8409 17.5028 14.5523 18.9333 12.9415C20.3895 11.3017 21.5 9.26833 21.5 6.6028H20.75H20C20 8.8002 19.1008 10.4939 17.8117 11.9455C16.4969 13.426 14.8396 14.5928 13.324 15.7876L13.7883 16.3766ZM20.75 6.6028H21.5C21.5 3.89073 19.9653 1.53862 17.7492 0.525658C15.4859 -0.508915 12.6515 -0.0907805 10.2096 2.44623L10.75 2.96633L11.2904 3.48643C13.3483 1.34827 15.5139 1.15317 17.1256 1.88989C18.7846 2.64822 20 4.45193 20 6.6028H20.75ZM13.7883 16.3766L13.324 15.7876C12.7979 16.2023 12.3287 16.5662 11.8764 16.8305C11.4239 17.095 11.0596 17.2157 10.75 17.2157V17.9657V18.7157C11.4404 18.7157 12.0761 18.4511 12.6332 18.1256C13.1905 17.8 13.7403 17.3694 14.2526 16.9656L13.7883 16.3766Z" fill="#1D1D1D"/>
</svg>
