<svg width="158" height="32" viewBox="0 0 158 32" fill="none" xmlns="http://www.w3.org/2000/svg">
<g clip-path="url(#clip0_1_366)">
<path fill-rule="evenodd" clip-rule="evenodd" d="M124.32 8.50682C124.32 9.78331 124.265 10.2745 124.882 11.4352C125.783 13.1998 126.681 14.3918 128.424 15.4399C129.042 15.8435 129.156 15.928 130.112 16.2159C130.844 16.4161 131.52 16.6163 132.137 16.7321C134.837 17.2483 144.737 17.3203 146.705 17.6519C150.588 18.3121 154.581 20.9683 151.319 24.804C150.643 25.58 149.912 26.0242 148.788 26.3965C144.008 28.0203 137.031 27.5886 132.137 26.1525C129.717 25.4204 126.681 23.5401 125.949 23.4806L124.092 27.1568C130.054 31.2053 135.118 31.9968 142.768 31.9968C147.943 31.9968 153.007 30.7485 156.099 27.1005C159.531 23.0082 158.012 18.4278 153.905 15.4118C147.492 10.7595 135.735 13.8036 132.078 11.5072C131.402 11.0755 129.773 9.52676 129.773 8.50682C129.773 4.91824 140.348 3.23814 147.323 5.49078L153.174 7.81851C153.68 6.87052 154.917 5.034 155.031 3.91393C154.581 3.79817 150.643 1.946 147.267 1.14194C141.361 -0.309765 134.723 -0.810352 129.322 2.3058C127.465 3.41022 124.317 5.57839 124.317 8.50995" fill="white"/>
<path fill-rule="evenodd" clip-rule="evenodd" d="M34.0903 15.8873H39.7716L43.1476 9.42664C43.4284 8.96672 43.5981 8.52245 43.8789 8.06254C44.2153 7.40239 44.8911 5.92253 45.4528 5.52206C45.678 6.55452 52.7109 18.5905 52.9331 19.5666H32.0073C31.7821 20.0547 31.6123 20.499 31.3901 20.9745C31.1093 21.6222 30.9396 21.7505 30.6588 22.3386C29.7577 24.3191 26.8908 29.9632 26.8322 30.8549H31.7821L34.2014 26.1149C34.5964 25.2233 34.7631 25.3828 34.9883 24.4067H55.6888C56.1394 26.4747 58.1637 28.8306 58.6143 30.8549H64.5208L48.659 0.678886H42.0212L37.1269 9.99918C36.5066 11.2068 34.257 15.0395 34.0903 15.8873Z" fill="white"/>
<path fill-rule="evenodd" clip-rule="evenodd" d="M89.7792 18.6437C89.1034 18.1838 88.767 17.6394 88.2609 16.9792L77.9662 4.14232V8.27842C77.9662 10.2589 77.7409 10.4904 78.6976 11.6668L89.5539 25.7833C90.2297 25.3109 98.4414 15.0426 99.5678 13.5784L104.573 7.38988C105.079 6.78604 105.024 6.65777 105.7 6.2135V30.8549H110.705V0.678886H104.573C103.897 0.678886 103.28 1.78331 102.66 2.64682C99.9041 6.30736 94.6704 12.5553 91.6338 16.3754C91.0722 17.1075 90.2853 17.8959 89.7761 18.6437" fill="white"/>
<path fill-rule="evenodd" clip-rule="evenodd" d="M0 30.8486H21.8268V26.4685H5.23066V0.678886H0V30.8486Z" fill="white"/>
<path d="M74.0841 0.678886H68.8535V30.8486H74.0841V0.678886Z" fill="white"/>
<path d="M120.213 0.678886H115.038V30.8486H120.213V0.678886Z" fill="white"/>
</g>
<defs>
<clipPath id="clip0_1_366">
<rect width="158" height="32" fill="white"/>
</clipPath>
</defs>
</svg>
