<svg width="18" height="18" viewBox="0 0 18 18" fill="none" xmlns="http://www.w3.org/2000/svg">
<path d="M12.5015 11.0014H11.7115L11.4315 10.7314C12.0564 10.0054 12.5132 9.15024 12.769 8.22705C13.0249 7.30389 13.0735 6.33559 12.9115 5.39144C12.4415 2.61144 10.1215 0.391441 7.32144 0.0514411C6.33706 -0.0730959 5.33723 0.0292111 4.39847 0.350531C3.45971 0.671841 2.60689 1.20366 1.90528 1.90527C1.20366 2.60688 0.671846 3.4597 0.350526 4.39846C0.029216 5.33723 -0.073093 6.33705 0.051436 7.32144C0.391436 10.1214 2.61145 12.4414 5.39145 12.9114C6.3356 13.0734 7.3039 13.0248 8.22706 12.7689C9.15017 12.5131 10.0054 12.0563 10.7315 11.4314L11.0015 11.7114V12.5014L15.2515 16.7514C15.6615 17.1614 16.3315 17.1614 16.7415 16.7514C17.1515 16.3414 17.1515 15.6714 16.7415 15.2614L12.5015 11.0014ZM6.50144 11.0014C4.01144 11.0014 2.00144 8.99144 2.00144 6.50144C2.00144 4.01144 4.01144 2.00144 6.50144 2.00144C8.99144 2.00144 11.0015 4.01144 11.0015 6.50144C11.0015 8.99144 8.99144 11.0014 6.50144 11.0014Z" fill="white"/>
</svg>
