<svg width="34" height="34" viewBox="0 0 34 34" fill="none" xmlns="http://www.w3.org/2000/svg">
<rect width="33.91" height="33.91" rx="16.955" fill="white"/>
<path d="M22.8972 10.5304C22.7075 10.5388 22.5309 10.594 22.3753 10.6569C22.2297 10.7155 21.673 10.9542 20.7962 11.3302C19.9187 11.7065 18.7568 12.2054 17.5173 12.7384C15.0383 13.8045 12.2513 15.0044 10.8238 15.6186C10.7701 15.6417 10.5828 15.7015 10.384 15.8567C10.1852 16.0119 9.97382 16.3335 9.97382 16.6919C9.97382 16.9808 10.1115 17.2679 10.2849 17.4393C10.4582 17.6106 10.6416 17.6953 10.7987 17.7594C11.3687 17.992 13.1366 18.7154 13.4704 18.852C13.5879 19.2119 14.2278 21.1693 14.3762 21.6491C14.474 21.9656 14.5671 22.1639 14.6883 22.3213C14.749 22.3999 14.8194 22.4689 14.9048 22.5229C14.9389 22.5445 14.9764 22.5611 15.0142 22.5765L15.0165 22.5776C15.0252 22.5811 15.0327 22.587 15.0415 22.5901C15.0582 22.596 15.0694 22.5967 15.0917 22.6015C15.1805 22.6302 15.2702 22.6482 15.3503 22.6482C15.6916 22.6482 15.9006 22.4603 15.9006 22.4603L15.9131 22.4511L17.6688 20.9324L19.7982 22.9467C19.8282 22.9891 20.1078 23.3728 20.7245 23.3728C21.0906 23.3728 21.3811 23.1891 21.5676 22.9935C21.754 22.7978 21.8702 22.5922 21.9196 22.3338V22.3326C21.9658 22.0884 23.9282 12.0138 23.9282 12.0138L23.9248 12.0275C23.9823 11.7653 23.9973 11.5211 23.9339 11.2801C23.8705 11.0391 23.7035 10.8084 23.4964 10.6842C23.2894 10.5601 23.0868 10.522 22.8972 10.5304ZM22.7878 11.7495C22.785 11.7665 22.7899 11.7579 22.7855 11.778L22.7844 11.7848L22.7832 11.7916C22.7832 11.7916 20.8451 21.7374 20.7735 22.1162C20.7787 22.0876 20.7547 22.1444 20.7302 22.1788C20.6954 22.1549 20.6242 22.1242 20.6242 22.1242L20.6128 22.1116L17.7041 19.3602L15.6476 21.1375L16.2595 18.688C16.2595 18.688 20.0839 14.7291 20.3143 14.4987C20.4998 14.3143 20.5388 14.2501 20.5388 14.1865C20.5388 14.1013 20.4944 14.0395 20.3952 14.0395C20.306 14.0395 20.1859 14.1263 20.1218 14.1671C19.2858 14.7 15.6157 16.839 13.9706 17.7959C13.7091 17.6889 11.8928 16.9454 11.2772 16.6941C11.2819 16.6921 11.2803 16.6928 11.2852 16.6907C12.7131 16.0764 15.4989 14.8764 17.9776 13.8105C19.2169 13.2776 20.3797 12.7783 21.2565 12.4023C22.1199 12.0321 22.7197 11.7773 22.7878 11.7495Z" fill="black"/>
</svg>
